<?xml version="1.0" standalone="no"?>
<!DOCTYPE svg PUBLIC "-//W3C//DTD SVG 20010904//EN"
 "http://www.w3.org/TR/2001/REC-SVG-20010904/DTD/svg10.dtd">
<svg version="1.0" xmlns="http://www.w3.org/2000/svg"
 width="512.000000pt" height="512.000000pt" viewBox="0 0 512.000000 512.000000"
 preserveAspectRatio="xMidYMid meet">

<g transform="translate(0.000000,512.000000) scale(0.100000,-0.100000)"
fill="#000000" stroke="none">
<path d="M2157 4672 c-9 -4 -487 -477 -1062 -1052 -747 -746 -1046 -1052
-1050 -1072 -10 -43 3 -82 36 -114 25 -24 39 -29 79 -29 l50 0 115 115 115
114 2 -962 3 -962 33 -32 32 -33 1330 0 1330 0 32 33 c28 28 33 39 33 82 0 43
-5 54 -33 82 l-32 33 -245 3 -245 3 0 607 c0 334 -4 632 -9 662 -30 179 -151
323 -321 382 -89 31 -209 30 -303 -1 -131 -44 -249 -160 -298 -293 l-23 -63
-4 -647 -3 -648 -519 0 -520 0 0 998 0 997 760 760 760 760 650 -650 c357
-357 661 -654 675 -658 40 -14 89 0 121 34 l29 30 0 629 0 630 -33 32 -32 33
-390 0 -390 0 -32 -33 c-33 -32 -33 -33 -38 -153 l-5 -120 -245 247 c-135 135
-255 250 -268 255 -27 10 -59 11 -85 1z"/>
<path d="M3855 3030 c-250 -40 -467 -152 -637 -328 -230 -240 -323 -514 -289
-856 23 -231 73 -409 176 -623 166 -346 455 -672 794 -898 l101 -67 101 67
c249 166 494 411 664 665 120 179 229 436 275 645 96 445 12 789 -263 1072
-152 157 -343 261 -562 309 -86 19 -279 26 -360 14z m250 -767 c183 -62 236
-323 95 -463 -107 -108 -293 -108 -400 0 -76 75 -99 183 -64 299 41 141 214
217 369 164z"/>
</g>
</svg>
