<?xml version="1.0" standalone="no"?>
<!DOCTYPE svg PUBLIC "-//W3C//DTD SVG 20010904//EN"
 "http://www.w3.org/TR/2001/REC-SVG-20010904/DTD/svg10.dtd">
<svg version="1.0" xmlns="http://www.w3.org/2000/svg"
 width="512.000000pt" height="512.000000pt" viewBox="0 0 512.000000 512.000000"
 preserveAspectRatio="xMidYMid meet">

<g transform="translate(0.000000,512.000000) scale(0.100000,-0.100000)"
fill="#000000" stroke="none">
<path d="M1043 4826 c-88 -28 -176 -107 -216 -194 l-22 -47 0 -2065 0 -2065
22 -47 c30 -66 105 -143 172 -175 l56 -28 1505 0 1505 0 56 28 c67 32 142 109
172 175 l22 47 0 2065 0 2065 -22 47 c-30 66 -105 143 -172 175 l-56 28 -1490
2 c-1206 1 -1498 -1 -1532 -11z m3017 -246 c20 -20 20 -33 20 -2060 0 -2027 0
-2040 -20 -2060 -20 -20 -33 -20 -1500 -20 -1467 0 -1480 0 -1500 20 -20 20
-20 33 -20 2060 0 2027 0 2040 20 2060 20 20 33 20 1500 20 1467 0 1480 0
1500 -20z"/>
</g>
</svg>
