<?xml version="1.0" standalone="no"?>
<!DOCTYPE svg PUBLIC "-//W3C//DTD SVG 20010904//EN"
 "http://www.w3.org/TR/2001/REC-SVG-20010904/DTD/svg10.dtd">
<svg version="1.0" xmlns="http://www.w3.org/2000/svg"
 width="512.000000pt" height="512.000000pt" viewBox="0 0 512.000000 512.000000"
 preserveAspectRatio="xMidYMid meet">

<g transform="translate(0.000000,512.000000) scale(0.100000,-0.100000)"
fill="#000000" stroke="none">
<path d="M2333 5101 c-68 -23 -125 -63 -158 -110 -25 -38 -27 -38 -108 -44
-246 -19 -400 -113 -564 -342 -145 -204 -192 -321 -200 -506 -7 -146 9 -246
82 -521 30 -111 58 -224 61 -250 6 -43 4 -48 -12 -48 -37 0 -120 -48 -161 -92
-76 -84 -116 -194 -117 -323 0 -95 19 -158 74 -244 75 -116 161 -179 268 -196
35 -6 43 -11 48 -33 62 -283 227 -560 423 -712 54 -42 71 -61 71 -80 0 -14 5
-70 10 -125 6 -55 7 -119 4 -142 -6 -39 -7 -41 -31 -32 -54 20 -118 8 -183
-36 -22 -15 -69 -30 -125 -40 -449 -82 -762 -373 -914 -850 -44 -135 -78 -339
-61 -360 11 -13 224 -15 1820 -15 1580 0 1809 2 1820 15 10 11 8 35 -10 116
-64 301 -214 585 -407 769 -143 138 -299 227 -496 284 -58 17 -104 38 -139 64
-68 50 -108 65 -158 60 -36 -3 -41 -1 -47 20 -3 13 -3 51 1 84 l6 61 93 91
c59 58 122 133 173 208 71 105 82 117 109 118 43 1 151 27 187 46 50 26 118
95 146 149 26 48 27 57 30 235 l4 184 58 62 c154 166 171 398 39 564 -39 50
-120 104 -171 116 -31 6 -32 9 -18 50 5 16 14 48 20 70 8 32 17 45 39 54 40
16 46 38 20 66 l-22 23 19 113 c15 88 19 161 18 333 0 206 -2 226 -27 319 -72
269 -199 420 -394 470 -142 37 -295 38 -570 5 -127 -16 -187 -6 -315 51 -131
57 -124 49 -104 106 9 27 32 75 52 107 19 31 34 65 32 75 -6 33 -134 42 -215
13z m-347 -1271 c248 -37 272 -41 447 -85 178 -45 353 -62 495 -49 59 5 102 6
102 0 0 -4 -36 -44 -80 -88 -44 -44 -80 -87 -80 -94 0 -19 35 -39 99 -58 138
-40 277 -2 402 111 39 35 41 36 52 18 26 -48 121 -134 177 -161 47 -22 59 -33
64 -57 11 -53 6 -628 -5 -759 -11 -116 -14 -127 -33 -130 -18 -3 -22 -16 -38
-113 -22 -130 -59 -258 -99 -337 l-29 -58 -236 0 -237 0 27 33 c120 146 239
342 234 387 l-3 25 -623 3 c-558 2 -623 1 -629 -14 -8 -21 8 -53 82 -164 164
-247 342 -393 512 -420 32 -6 74 -14 93 -20 94 -27 210 -5 274 51 l45 39 201
-2 201 -3 -62 -90 c-85 -123 -124 -168 -192 -223 -32 -25 -64 -56 -70 -67 -6
-11 -11 -70 -11 -131 l-1 -111 -243 -197 c-133 -108 -245 -196 -248 -196 -7 0
-223 173 -390 311 l-80 67 7 58 c3 33 2 125 -4 206 l-10 147 -61 44 c-190 140
-358 396 -420 643 -9 34 -16 72 -16 85 0 12 -7 31 -17 41 -14 16 -16 52 -14
336 1 231 -3 356 -14 457 -17 157 -12 387 11 470 15 56 54 101 100 115 51 15
116 11 320 -20z m1804 -1511 c0 -73 -5 -149 -12 -171 -16 -55 -78 -121 -135
-145 -45 -19 -113 -37 -113 -29 0 2 14 33 30 70 34 73 76 230 86 319 6 51 9
58 33 63 14 3 40 9 56 13 57 17 55 21 55 -120z m-620 30 c0 -22 -121 -215
-169 -269 l-49 -55 -34 32 c-50 47 -123 90 -195 114 -53 17 -82 21 -152 17
-75 -3 -96 -9 -163 -42 -42 -21 -84 -46 -94 -57 -9 -10 -22 -19 -28 -19 -18 0
-167 195 -205 268 l-12 22 551 0 c404 0 550 -3 550 -11z m-906 -1309 c140
-113 255 -210 256 -217 1 -36 -207 -293 -239 -293 -5 0 -42 42 -84 92 -85 105
-228 247 -364 361 -51 43 -93 82 -93 87 0 20 88 117 135 148 39 27 57 32 91
30 39 -3 66 -21 298 -208z m1007 181 c39 -27 139 -136 139 -152 0 -4 -52 -51
-115 -104 -140 -117 -272 -249 -356 -356 -34 -43 -67 -79 -73 -79 -20 0 -145
138 -196 216 -41 62 -48 80 -38 90 7 6 125 102 262 213 235 189 252 201 291
201 30 0 55 -9 86 -29z m-1547 -63 c-4 -7 -18 -27 -31 -44 -37 -49 -31 -67 50
-135 254 -216 344 -307 459 -461 32 -43 58 -68 70 -68 25 0 193 168 242 240
l36 55 0 -343 0 -342 -879 0 -878 0 4 28 c15 95 49 237 75 311 141 399 397
653 758 750 90 24 104 25 94 9z m1846 -69 c296 -113 539 -380 673 -739 35 -94
77 -243 77 -274 0 -14 -25 -16 -210 -16 l-209 0 -3 128 -3 127 -52 3 -53 3 0
130 c0 125 -1 131 -25 154 -33 34 -87 34 -120 0 -24 -23 -25 -29 -25 -155 l0
-130 -25 0 -25 0 0 124 c0 119 -1 126 -26 155 -37 44 -91 44 -128 0 -25 -29
-26 -36 -26 -155 l0 -124 -159 0 c-136 0 -160 -2 -165 -16 -3 -9 -6 -67 -6
-130 l0 -114 -225 0 -225 0 0 332 0 331 32 -44 c70 -98 205 -229 235 -229 6 0
47 43 89 96 112 141 199 229 366 370 84 72 148 133 148 143 0 10 -7 26 -15 37
-32 42 -23 42 105 -7z m270 -919 l0 -90 -360 0 -360 0 0 90 0 90 360 0 360 0
0 -90z"/>
<path d="M2048 3275 c-79 -29 -186 -121 -175 -149 10 -26 36 -18 84 24 65 57
125 83 192 84 68 0 107 -19 167 -81 44 -45 76 -53 82 -22 5 25 -74 105 -130
133 -60 30 -156 35 -220 11z"/>
<path d="M2962 3269 c-66 -26 -168 -118 -159 -142 10 -26 40 -20 73 14 16 17
47 41 69 54 109 64 208 52 293 -35 51 -52 75 -61 86 -34 9 24 -36 79 -102 122
-50 34 -62 37 -131 39 -58 2 -89 -2 -129 -18z"/>
</g>
</svg>
